<?xml version="1.0" encoding="utf-8"?>
<!-- Generator: Adobe Illustrator 15.0.2, SVG Export Plug-In . SVG Version: 6.00 Build 0)  -->
<!DOCTYPE svg PUBLIC "-//W3C//DTD SVG 1.1//EN" "http://www.w3.org/Graphics/SVG/1.1/DTD/svg11.dtd">
<svg version="1.1" xmlns="http://www.w3.org/2000/svg" xmlns:xlink="http://www.w3.org/1999/xlink" x="0px" y="0px"
	 width="841.89px" height="595.28px" viewBox="0 0 841.89 595.28" enable-background="new 0 0 841.89 595.28" xml:space="preserve">
<g id="Drawing">
	<radialGradient id="SVGID_1_" cx="584.3223" cy="443.3301" r="285.1966" gradientUnits="userSpaceOnUse">
		<stop  offset="0" style="stop-color:#767474"/>
		<stop  offset="0.6827" style="stop-color:#231F20"/>
	</radialGradient>
	<path fill="url(#SVGID_1_)" d="M589.5,352c0,0-20.119,13.404-42.432,50.838c9.519,16.52,22.684,29.234,35.056,37.789
		c4.174,2.886,9.259,3.098,10.876-3.377c10.026-40.153,23.482-66.156,51.151-102.34c1.45-1.896,2.184-4.713,2.688-7.609L589.5,352z"
		/>
	<radialGradient id="SVGID_2_" cx="523.085" cy="215.5947" r="410.0585" gradientUnits="userSpaceOnUse">
		<stop  offset="0" style="stop-color:#8C8C8C"/>
		<stop  offset="1" style="stop-color:#464142"/>
	</radialGradient>
	<path fill="url(#SVGID_2_)" d="M505.922,112.989c-178.138-47.715-324.054,102.101-311.74,275.1
		c2.691,37.803,11.422,72.589,25.513,103.182h338.322c-79.465-42.403-133.35-96.756-145.761-180.28
		c-9.339-62.844,27.671-106,72.333-106c31,0,51.652,14.525,58.565,39.42c8.812,31.732-7.755,53.229-10.309,81.512
		c-2.977,32.962,3.786,59.042,14.223,76.915c26.848-32.456,63.599-54.505,99.771-75.537
		C660.75,209.524,581.15,133.139,505.922,112.989z M623.436,325.458c-6.575,0-11.908-5.333-11.908-11.91
		c0-6.575,5.333-11.908,11.908-11.908s11.908,5.333,11.908,11.908C635.344,320.125,630.011,325.458,623.436,325.458z"/>
</g>
<g id="Other_Attempts" display="none">
	<g display="inline">
		<path fill="#231F20" d="M641.576,455.28c-146.242-0.28-248.631-77.613-248.631-188.14c0-52.064,42.206-94.27,94.27-94.27
			c23.857,0,45.641,8.867,62.245,23.479l45.214-38.462c-44.98-43.482-106.226-70.247-173.729-70.247c-138.071,0-250,111.929-250,250
			s111.929,250,250,250C516.484,587.641,599.493,534.041,641.576,455.28L641.576,455.28z"/>
		<radialGradient id="SVGID_3_" cx="642" cy="455" r="443.4538" gradientUnits="userSpaceOnUse">
			<stop  offset="0" style="stop-color:#767474"/>
			<stop  offset="0.6827" style="stop-color:#231F20"/>
		</radialGradient>
		<path fill="url(#SVGID_3_)" d="M392.945,267.141c0-4.381,0.306-8.691,0.884-12.913L298.667,177c0,0-10.667,76,20.667,142.667
			C362.58,411.681,476.667,455.28,641.576,455.28C495.334,455,392.945,377.667,392.945,267.141z"/>
	</g>
	<path display="inline" opacity="0.2" fill="#EF638E" d="M371.945,297.641c0-60.625,49.146-109.77,109.77-109.77
		c30.753,0,58.546,12.652,78.475,33.027l53.986-41.885c-45.85-55.788-115.383-91.373-193.23-91.373c-138.071,0-250,111.929-250,250
		s111.929,250,250,250c95.539,0,178.548-53.6,220.631-132.36C406.665,455.276,371.945,358.264,371.945,297.641z"/>
</g>
</svg>
